<svg width="20" height="20" viewBox="0 0 20 20" fill="none" xmlns="http://www.w3.org/2000/svg">
<path d="M13.2275 10.2842C13.2275 10.8775 13.0516 11.4575 12.7219 11.9509C12.3923 12.4442 11.9238 12.8288 11.3756 13.0558C10.8274 13.2829 10.2242 13.3423 9.64227 13.2265C9.06033 13.1108 8.52578 12.8251 8.10622 12.4055C7.68666 11.9859 7.40094 11.4514 7.28518 10.8695C7.16943 10.2875 7.22884 9.68431 7.4559 9.13613C7.68296 8.58795 8.06748 8.11942 8.56083 7.78977C9.05418 7.46013 9.6342 7.28418 10.2275 7.28418C11.0224 7.28665 11.7841 7.60352 12.3461 8.16559C12.9082 8.72766 13.2251 9.48929 13.2275 10.2842ZM19.6025 6.15918V14.4092C19.6025 15.8016 19.0494 17.1369 18.0648 18.1215C17.0803 19.1061 15.7449 19.6592 14.3525 19.6592H6.10254C4.71015 19.6592 3.37479 19.1061 2.39023 18.1215C1.40566 17.1369 0.852539 15.8016 0.852539 14.4092V6.15918C0.852539 4.76679 1.40566 3.43144 2.39023 2.44687C3.37479 1.4623 4.71015 0.90918 6.10254 0.90918H14.3525C15.7449 0.90918 17.0803 1.4623 18.0648 2.44687C19.0494 3.43144 19.6025 4.76679 19.6025 6.15918ZM14.7275 10.2842C14.7275 9.39416 14.4636 8.52413 13.9692 7.78411C13.4747 7.04409 12.7719 6.46732 11.9496 6.12672C11.1273 5.78613 10.2225 5.69701 9.34963 5.87065C8.47672 6.04428 7.67489 6.47286 7.04556 7.1022C6.41622 7.73154 5.98764 8.53336 5.81401 9.40627C5.64037 10.2792 5.72949 11.184 6.07008 12.0063C6.41068 12.8285 6.98745 13.5313 7.72747 14.0258C8.46749 14.5203 9.33752 14.7842 10.2275 14.7842C11.421 14.7842 12.5656 14.3101 13.4095 13.4662C14.2534 12.6222 14.7275 11.4777 14.7275 10.2842ZM16.2275 5.40918C16.2275 5.18668 16.1616 4.96917 16.0379 4.78416C15.9143 4.59916 15.7386 4.45496 15.5331 4.36982C15.3275 4.28467 15.1013 4.26239 14.8831 4.3058C14.6648 4.3492 14.4644 4.45635 14.307 4.61368C14.1497 4.77102 14.0426 4.97147 13.9992 5.1897C13.9557 5.40793 13.978 5.63413 14.0632 5.8397C14.1483 6.04527 14.2925 6.22097 14.4775 6.34458C14.6625 6.4682 14.88 6.53418 15.1025 6.53418C15.4009 6.53418 15.6871 6.41565 15.898 6.20467C16.109 5.9937 16.2275 5.70755 16.2275 5.40918Z" fill="#1E1E1E"/>
</svg>
