<svg width="21" height="21" viewBox="0 0 21 21" fill="none" xmlns="http://www.w3.org/2000/svg">
<path d="M10.2277 0.338623C4.73491 0.338623 0.282227 4.79131 0.282227 10.2841C0.282227 15.7769 4.73491 20.2296 10.2277 20.2296C15.7206 20.2296 20.1732 15.7769 20.1732 10.2841C20.1732 4.79131 15.7206 0.338623 10.2277 0.338623ZM7.79316 14.4063H5.77919V7.92518H7.79316V14.4063ZM6.77374 7.12954C6.13764 7.12954 5.72636 6.67888 5.72636 6.12152C5.72636 5.55276 6.15007 5.11557 6.79964 5.11557C7.44921 5.11557 7.84703 5.55276 7.85946 6.12152C7.85946 6.67888 7.44921 7.12954 6.77374 7.12954ZM15.1487 14.4063H13.1347V10.8146C13.1347 9.97851 12.8426 9.41079 12.1143 9.41079C11.5579 9.41079 11.2275 9.79514 11.0814 10.165C11.0275 10.2966 11.014 10.483 11.014 10.6685V14.4053H8.99905V9.99198C8.99905 9.18287 8.97315 8.50637 8.94621 7.92414H10.696L10.7882 8.82442H10.8286C11.0938 8.40174 11.7434 7.77807 12.8301 7.77807C14.1552 7.77807 15.1487 8.66591 15.1487 10.5742V14.4063Z" fill="#1E1E1E"/>
</svg>
