<svg width="68" height="67" viewBox="0 0 68 67" fill="none" xmlns="http://www.w3.org/2000/svg">
<g clip-path="url(#clip0_331_14)">
<path d="M55.4545 24.0972C55.4545 38.3311 34.1037 54.9372 34.1037 54.9372C34.1037 54.9372 12.7529 38.3311 12.7529 24.0972C12.7529 12.4682 22.4746 2.74646 34.1037 2.74646C45.7327 2.74646 55.4545 12.4682 55.4545 24.0972Z" stroke="white" stroke-width="4.74461" stroke-linecap="round" stroke-linejoin="round"/>
<path d="M53.447 47.8203H57.8263L64.9432 64.4265H3.26318L10.3801 47.8203H14.7594M34.1032 31.2142C35.9907 31.2142 37.8009 30.4644 39.1356 29.1297C40.4703 27.795 41.2201 25.9848 41.2201 24.0973C41.2201 22.2097 40.4703 20.3995 39.1356 19.0648C37.8009 17.7302 35.9907 16.9803 34.1032 16.9803C32.2157 16.9803 30.4054 17.7302 29.0708 19.0648C27.7361 20.3995 26.9863 22.2097 26.9863 24.0973C26.9863 25.9848 27.7361 27.795 29.0708 29.1297C30.4054 30.4644 32.2157 31.2142 34.1032 31.2142Z" stroke="white" stroke-width="4.74461" stroke-linecap="round" stroke-linejoin="round"/>
</g>
<defs>
<clipPath id="clip0_331_14">
<rect width="66.4246" height="66.4246" fill="white" transform="translate(0.891113 0.374023)"/>
</clipPath>
</defs>
</svg>
