<svg width="44" height="31" viewBox="0 0 44 31" fill="none" xmlns="http://www.w3.org/2000/svg">
<path fill-rule="evenodd" clip-rule="evenodd" d="M38.055 6.0918H43.6109L28.0324 30.7121L24.3286 24.2847L20.0799 30.7121L17.6831 27.4438L24.3286 16.9856L27.9235 22.5418L38.055 6.0918Z" fill="#FFA500"/>
<path fill-rule="evenodd" clip-rule="evenodd" d="M26.7069 15.6893L33.4384 6.09521H28.3423L26.2349 9.71279C24.9639 11.9318 25.9146 13.8332 26.7069 15.6893Z" fill="#1E1E1E"/>
<path fill-rule="evenodd" clip-rule="evenodd" d="M21.8805 15.4125L23.5979 12.8106C21.6481 4.95447 17.2306 -0.258241 10.4314 0.0325748C2.54365 0.559136 -1.51715 8.91769 1.26444 14.8751L9.41406 29.776C10.0988 30.9134 11.3952 30.9688 12.0797 29.8779L15.6548 23.0124L14.2727 20.3209L10.8667 27.3869L3.81053 14.0746C1.39343 9.44111 5.24094 3.19387 10.4314 2.79412C13.4729 2.38447 17.4934 5.32041 19.1636 9.77009L21.8805 15.4123V15.4125Z" fill="#1E1E1E"/>
<path d="M11.2244 14.6822C12.814 14.6822 14.1026 13.3936 14.1026 11.804C14.1026 10.2144 12.814 8.92578 11.2244 8.92578C9.63481 8.92578 8.34619 10.2144 8.34619 11.804C8.34619 13.3936 9.63481 14.6822 11.2244 14.6822Z" fill="#1E1E1E"/>
</svg>
