<svg width="40" height="36" viewBox="0 0 40 36" fill="none" xmlns="http://www.w3.org/2000/svg">
<rect y="0.738525" width="39.8339" height="34.5227" rx="9.41869" fill="#FFA500"/>
<path fill-rule="evenodd" clip-rule="evenodd" d="M31.2152 11.4736H35.1249L24.1625 28.7986L21.5562 24.2757L18.5665 28.7986L16.8799 26.4987L21.5562 19.1394L24.0859 23.0492L31.2152 11.4736Z" fill="white"/>
<path fill-rule="evenodd" clip-rule="evenodd" d="M23.2299 18.227L27.9668 11.4758H24.3808L22.8978 14.0215C22.0034 15.583 22.6724 16.921 23.2299 18.227Z" fill="white"/>
<path fill-rule="evenodd" clip-rule="evenodd" d="M19.8326 18.0322L21.0411 16.2013C19.6691 10.673 16.5605 7.00492 11.7761 7.20956C6.22555 7.5801 3.36803 13.4619 5.32539 17.654L11.0601 28.1395C11.542 28.9399 12.4542 28.9788 12.9359 28.2113L15.4516 23.3801L14.4791 21.4861L12.0823 26.4584L7.11704 17.0907C5.41616 13.8302 8.12359 9.43412 11.7761 9.15282C13.9163 8.86455 16.7454 10.9305 17.9208 14.0617L19.8326 18.032V18.0322Z" fill="white"/>
<path d="M12.3339 17.5185C13.4525 17.5185 14.3593 16.6117 14.3593 15.4931C14.3593 14.3746 13.4525 13.4678 12.3339 13.4678C11.2154 13.4678 10.3086 14.3746 10.3086 15.4931C10.3086 16.6117 11.2154 17.5185 12.3339 17.5185Z" fill="white"/>
</svg>
