<svg width="72" height="73" viewBox="0 0 72 73" fill="none" xmlns="http://www.w3.org/2000/svg">
<path d="M8.30769 11.0979C3.72185 11.0979 0 14.8197 0 19.4056V52.6364C0 57.2222 3.72185 60.9441 8.30769 60.9441H63.6923C68.2782 60.9441 72 57.2222 72 52.6364V19.4056C72 14.8197 68.2782 11.0979 63.6923 11.0979H8.30769ZM8.30769 16.6364H63.6923C65.2182 16.6364 66.4615 17.8797 66.4615 19.4056V20.7902L36 37.2339L5.53846 20.7902V19.4056C5.53846 17.8797 6.78185 16.6364 8.30769 16.6364ZM5.53846 21.5684L23.6243 35.6748L5.88462 53.8493L27.5206 38.4441L36 43.8967L44.4822 38.4441L66.1154 53.8493L48.3757 35.6748L66.4615 21.5684V52.6364C66.4462 53.0628 66.3274 53.479 66.1154 53.8493C65.6585 54.7493 64.7695 55.4056 63.6923 55.4056H8.30769C7.23046 55.4056 6.34154 54.7521 5.88462 53.8493C5.67301 53.4799 5.55423 53.0618 5.53846 52.6364V21.5684Z" fill="white"/>
</svg>
