<svg width="86" height="85" viewBox="0 0 86 85" fill="none" xmlns="http://www.w3.org/2000/svg">
<path fill-rule="evenodd" clip-rule="evenodd" d="M20.9145 7.24151C25.2209 2.95995 32.312 3.72073 35.9177 8.54013L40.3832 14.4989C43.3202 18.4196 43.0583 23.8971 39.5729 27.3613L38.7308 28.2034C38.6353 28.557 38.6256 28.9282 38.7025 29.2862C38.9254 30.7299 40.132 33.7871 45.1849 38.8118C50.2379 43.8364 53.3164 45.0395 54.7813 45.266C55.1504 45.3402 55.5316 45.3293 55.8959 45.2341L57.3396 43.7975C60.4393 40.719 65.195 40.1423 69.0307 42.2264L75.7892 45.9064C81.5817 49.0486 83.0431 56.9182 78.3015 61.635L73.2734 66.6313C71.6881 68.2059 69.558 69.5187 66.9607 69.7628C60.5561 70.3608 45.6343 69.5965 29.9483 54.0025C15.3096 39.4452 12.5001 26.7491 12.1427 20.4931C11.9657 17.3297 13.459 14.6546 15.3627 12.7651L20.9145 7.24151ZM31.6715 11.7212C29.8775 9.32567 26.5372 9.13459 24.6547 11.0064L19.0993 16.5265C17.9316 17.6871 17.3725 18.968 17.4433 20.1923C17.7264 25.1639 19.991 36.6179 33.692 50.2411C48.0653 64.5294 61.3381 64.9576 66.4689 64.4763C67.5163 64.3808 68.5566 63.8359 69.5297 62.8699L74.5543 57.87C76.5995 55.8389 76.1501 52.1377 73.2557 50.5666L66.4972 46.8901C64.6289 45.8781 62.4421 46.2107 61.0833 47.5624L59.4733 49.1654L57.5979 47.2829C59.4733 49.1654 59.4698 49.1689 59.4662 49.1689L59.4627 49.176L59.4521 49.1866L59.4273 49.2078L59.3742 49.2574C59.2249 49.396 59.0639 49.5215 58.893 49.6324C58.6099 49.82 58.2348 50.0287 57.7642 50.2021C56.8088 50.5595 55.5421 50.7506 53.9781 50.51C50.9102 50.0394 46.8445 47.9481 41.4412 42.5767C36.0415 37.2053 33.9326 33.1644 33.4584 30.1001C33.2143 28.5361 33.4089 27.2693 33.7698 26.3139C33.9685 25.7763 34.2529 25.2744 34.612 24.8277L34.7252 24.7039L34.7748 24.6508L34.796 24.6296L34.8066 24.619L34.8137 24.6119L35.8328 23.5999C37.3472 22.0889 37.5595 19.5872 36.1335 17.68L31.6715 11.7212Z" fill="white"/>
</svg>
