<svg width="90" height="89" viewBox="0 0 90 89" fill="none" xmlns="http://www.w3.org/2000/svg">
<path d="M75.5771 15.7928L75.5853 15.8013L75.5937 15.8097C77.2387 17.4547 77.2268 20.0837 75.6019 21.681L75.6019 21.681L75.5937 21.6892L61.2972 35.9857L60.7673 36.5155L60.9358 37.2456L68.5595 70.2937L65.2054 73.6715L51.8012 48.003L50.9488 46.3708L49.6468 47.6729L35.3134 62.0062L34.8338 62.4859L34.9316 63.1572L36.1563 71.5597L33.9778 73.7178L28.3746 63.5938L28.1868 63.2545L27.8476 63.0663L17.6767 57.4229L19.8463 55.2123L28.3536 56.4714L29.0265 56.571L29.5075 56.09L43.7306 41.8669L45.0283 40.5692L43.4042 39.7145L17.7275 26.2023L21.1097 22.8439L54.1578 30.4677L54.8879 30.6361L55.4177 30.1063L69.7143 15.8097L69.7226 15.8013L69.7309 15.7928C71.2575 14.2117 74.0505 14.2117 75.5771 15.7928Z" stroke="white" stroke-width="2.70396"/>
</svg>
