<svg width="84" height="83" viewBox="0 0 84 83" fill="none" xmlns="http://www.w3.org/2000/svg">
<path d="M29.8882 38.032H54.3175" stroke="white" stroke-width="5.16258" stroke-miterlimit="10" stroke-linecap="round"/>
<path d="M71.9496 41.0951V22.9228C71.9495 21.5285 71.5107 20.1696 70.6953 19.0385C69.88 17.9075 68.7293 17.0617 67.4065 16.621L50.4939 10.9801C45.0437 9.18666 39.1623 9.18666 33.712 10.9801L16.7994 16.6176C15.4771 17.0581 14.3269 17.9034 13.5116 19.0337C12.6963 20.1641 12.2571 21.5222 12.2563 22.9159V41.0882C12.257 45.574 13.3947 49.9863 15.5633 53.913C17.7319 57.8397 20.8605 61.1526 24.6569 63.542L38.589 72.2978C39.6432 72.955 40.8606 73.3034 42.103 73.3034C43.3453 73.3034 44.5627 72.955 45.617 72.2978L59.5456 63.542C63.3421 61.1533 66.4711 57.8411 68.6403 53.9151C70.8094 49.989 71.948 45.5771 71.9496 41.0917" stroke="white" stroke-width="5.16258" stroke-linecap="round" stroke-linejoin="round"/>
</svg>
